<mxfile host="app.diagrams.net" agent="Mozilla/5.0 (Macintosh; Intel Mac OS X 10_15_7) AppleWebKit/537.36 (KHTML, like Gecko) Chrome/135.0.0.0 Safari/537.36" version="26.2.14">
  <diagram name="Page-1" id="91wf84LCrlhssiq_ghP1">
    <mxGraphModel grid="1" page="1" gridSize="10" guides="1" tooltips="1" connect="1" arrows="1" fold="1" pageScale="1" pageWidth="827" pageHeight="1169" math="0" shadow="0">
      <root>
        <mxCell id="0" />
        <mxCell id="1" parent="0" />
        <mxCell id="4Fsd4Eb3JKcEtLIkyjAm-9" value="&lt;b&gt;Analytic Data&lt;/b&gt;" style="rounded=0;whiteSpace=wrap;html=1;verticalAlign=top;" vertex="1" parent="1">
          <mxGeometry x="540" y="140" width="190" height="310" as="geometry" />
        </mxCell>
        <mxCell id="4Fsd4Eb3JKcEtLIkyjAm-6" value="&lt;b&gt;Operational Data&lt;/b&gt;" style="rounded=0;whiteSpace=wrap;html=1;verticalAlign=top;" vertex="1" parent="1">
          <mxGeometry x="80" y="140" width="370" height="310" as="geometry" />
        </mxCell>
        <mxCell id="4Fsd4Eb3JKcEtLIkyjAm-1" value="Source Aligned" style="rounded=0;whiteSpace=wrap;html=1;" vertex="1" parent="1">
          <mxGeometry x="100" y="180" width="120" height="30" as="geometry" />
        </mxCell>
        <mxCell id="4Fsd4Eb3JKcEtLIkyjAm-2" value="Consumer Aligned" style="rounded=0;whiteSpace=wrap;html=1;" vertex="1" parent="1">
          <mxGeometry x="300" y="180" width="120" height="30" as="geometry" />
        </mxCell>
        <mxCell id="4Fsd4Eb3JKcEtLIkyjAm-3" value="&lt;b&gt;Data Lake&lt;/b&gt;&lt;br&gt;&lt;br&gt;Clinical Data Repository (CDR)" style="rounded=0;whiteSpace=wrap;html=1;" vertex="1" parent="1">
          <mxGeometry x="300" y="210" width="120" height="60" as="geometry" />
        </mxCell>
        <mxCell id="4Fsd4Eb3JKcEtLIkyjAm-4" value="&lt;div&gt;&lt;span style=&quot;background-color: transparent; color: light-dark(rgb(0, 0, 0), rgb(255, 255, 255));&quot;&gt;Application(s) Database&lt;/span&gt;&lt;/div&gt;" style="rounded=0;whiteSpace=wrap;html=1;" vertex="1" parent="1">
          <mxGeometry x="100" y="210" width="120" height="60" as="geometry" />
        </mxCell>
        <mxCell id="4Fsd4Eb3JKcEtLIkyjAm-5" value="&lt;b&gt;Data Warehouse&lt;/b&gt;&lt;br&gt;&lt;br&gt;Clinical Data Warehouse (CDW)" style="rounded=0;whiteSpace=wrap;html=1;" vertex="1" parent="1">
          <mxGeometry x="570" y="210" width="120" height="60" as="geometry" />
        </mxCell>
        <mxCell id="4Fsd4Eb3JKcEtLIkyjAm-7" value="" style="shape=flexArrow;endArrow=classic;html=1;rounded=0;" edge="1" parent="1">
          <mxGeometry width="50" height="50" relative="1" as="geometry">
            <mxPoint x="240" y="230" as="sourcePoint" />
            <mxPoint x="280" y="230" as="targetPoint" />
          </mxGeometry>
        </mxCell>
        <mxCell id="4Fsd4Eb3JKcEtLIkyjAm-8" value="" style="shape=flexArrow;endArrow=classic;html=1;rounded=0;" edge="1" parent="1">
          <mxGeometry width="50" height="50" relative="1" as="geometry">
            <mxPoint x="470" y="240" as="sourcePoint" />
            <mxPoint x="510" y="239.5" as="targetPoint" />
          </mxGeometry>
        </mxCell>
        <mxCell id="4Fsd4Eb3JKcEtLIkyjAm-10" value="Events&lt;br&gt;ETL" style="text;html=1;align=center;verticalAlign=middle;whiteSpace=wrap;rounded=0;" vertex="1" parent="1">
          <mxGeometry x="231" y="260" width="60" height="30" as="geometry" />
        </mxCell>
        <mxCell id="4Fsd4Eb3JKcEtLIkyjAm-11" value="Cleanse&lt;br&gt;Enrich&lt;br&gt;Aggregate" style="text;html=1;align=center;verticalAlign=middle;whiteSpace=wrap;rounded=0;" vertex="1" parent="1">
          <mxGeometry x="463" y="270" width="60" height="30" as="geometry" />
        </mxCell>
        <mxCell id="4Fsd4Eb3JKcEtLIkyjAm-12" value="&lt;b&gt;Domain Archetype&lt;/b&gt; (logical)" style="rounded=0;whiteSpace=wrap;html=1;" vertex="1" parent="1">
          <mxGeometry x="301" y="310" width="120" height="60" as="geometry" />
        </mxCell>
        <mxCell id="4Fsd4Eb3JKcEtLIkyjAm-13" value="Archetype and Entities" style="rounded=0;whiteSpace=wrap;html=1;" vertex="1" parent="1">
          <mxGeometry x="99" y="310" width="120" height="60" as="geometry" />
        </mxCell>
        <mxCell id="4Fsd4Eb3JKcEtLIkyjAm-14" value="&lt;b&gt;Domain Entity&lt;/b&gt; (physical)" style="rounded=0;whiteSpace=wrap;html=1;" vertex="1" parent="1">
          <mxGeometry x="301" y="370" width="120" height="60" as="geometry" />
        </mxCell>
        <mxCell id="4Fsd4Eb3JKcEtLIkyjAm-15" value="&lt;font style=&quot;font-size: 16px;&quot;&gt;Data Architecture (Data Mesh)&lt;/font&gt;" style="text;html=1;align=left;verticalAlign=middle;whiteSpace=wrap;rounded=0;fontStyle=1" vertex="1" parent="1">
          <mxGeometry x="80" y="90" width="280" height="30" as="geometry" />
        </mxCell>
        <mxCell id="4Fsd4Eb3JKcEtLIkyjAm-25" value="Domain&amp;nbsp;&lt;div&gt;Event&lt;/div&gt;" style="text;html=1;align=center;verticalAlign=middle;whiteSpace=wrap;rounded=0;" vertex="1" parent="1">
          <mxGeometry x="231" y="325" width="60" height="30" as="geometry" />
        </mxCell>
        <mxCell id="4Fsd4Eb3JKcEtLIkyjAm-26" value="&lt;b&gt;NHS England (NRL) and International Record Sharing&lt;/b&gt;" style="rounded=0;whiteSpace=wrap;html=1;verticalAlign=top;" vertex="1" parent="1">
          <mxGeometry x="80" y="570" width="370" height="150" as="geometry" />
        </mxCell>
        <mxCell id="4Fsd4Eb3JKcEtLIkyjAm-27" value="&lt;b&gt;Domain Composition&lt;/b&gt;" style="rounded=0;whiteSpace=wrap;html=1;" vertex="1" parent="1">
          <mxGeometry x="301" y="640" width="120" height="60" as="geometry" />
        </mxCell>
        <mxCell id="4Fsd4Eb3JKcEtLIkyjAm-28" value="" style="shape=flexArrow;endArrow=classic;html=1;rounded=0;" edge="1" parent="1">
          <mxGeometry width="50" height="50" relative="1" as="geometry">
            <mxPoint x="360" y="470" as="sourcePoint" />
            <mxPoint x="360" y="510" as="targetPoint" />
          </mxGeometry>
        </mxCell>
        <mxCell id="4Fsd4Eb3JKcEtLIkyjAm-29" value="Aggregate Aligned" style="rounded=0;whiteSpace=wrap;html=1;" vertex="1" parent="1">
          <mxGeometry x="301" y="610" width="120" height="30" as="geometry" />
        </mxCell>
        <mxCell id="4Fsd4Eb3JKcEtLIkyjAm-30" value="&lt;b&gt;NHS England (Federated Data Platform)&amp;nbsp;&lt;/b&gt;" style="rounded=0;whiteSpace=wrap;html=1;verticalAlign=top;" vertex="1" parent="1">
          <mxGeometry x="540" y="570" width="190" height="150" as="geometry" />
        </mxCell>
        <mxCell id="4Fsd4Eb3JKcEtLIkyjAm-31" value="&lt;b&gt;Data Warehouse&lt;/b&gt;&lt;br&gt;&lt;br&gt;Clinical Data Warehouse (CDW)" style="rounded=0;whiteSpace=wrap;html=1;" vertex="1" parent="1">
          <mxGeometry x="575" y="640" width="120" height="60" as="geometry" />
        </mxCell>
        <mxCell id="4Fsd4Eb3JKcEtLIkyjAm-32" value="" style="shape=flexArrow;endArrow=classic;html=1;rounded=0;" edge="1" parent="1">
          <mxGeometry width="50" height="50" relative="1" as="geometry">
            <mxPoint x="634.5" y="470" as="sourcePoint" />
            <mxPoint x="634.5" y="510" as="targetPoint" />
          </mxGeometry>
        </mxCell>
        <mxCell id="4Fsd4Eb3JKcEtLIkyjAm-33" value="Cleanse&lt;br&gt;Enrich&lt;br&gt;Aggregate" style="text;html=1;align=center;verticalAlign=middle;whiteSpace=wrap;rounded=0;" vertex="1" parent="1">
          <mxGeometry x="660" y="470" width="60" height="30" as="geometry" />
        </mxCell>
        <mxCell id="4Fsd4Eb3JKcEtLIkyjAm-34" value="&lt;font style=&quot;font-size: 16px;&quot;&gt;Data Architecture (Centralised)&lt;/font&gt;" style="text;html=1;align=left;verticalAlign=middle;whiteSpace=wrap;rounded=0;fontStyle=1" vertex="1" parent="1">
          <mxGeometry x="80" y="520" width="280" height="30" as="geometry" />
        </mxCell>
      </root>
    </mxGraphModel>
  </diagram>
</mxfile>
